HIERARCHY
ROOT Hips
{
	OFFSET 0.000000 0.000000 0.000000
	CHANNELS 6 Xposition Yposition Zposition Zrotation Yrotation Xrotation 
	JOINT LHipJoint
	{
		OFFSET 0.000000 0.000000 0.000000
		CHANNELS 3 Zrotation Yrotation Xrotation
		JOINT LeftUpLeg
		{
			OFFSET 1.363060 -1.794630 0.839290
			CHANNELS 3 Zrotation Yrotation Xrotation
			JOINT LeftLeg
			{
				OFFSET 2.448110 -6.726130 0.000000
				CHANNELS 3 Zrotation Yrotation Xrotation
				JOINT LeftFoot
				{
					OFFSET 2.562200 -7.039590 0.000000
					CHANNELS 3 Zrotation Yrotation Xrotation
					JOINT LeftToeBase
					{
						OFFSET 0.157640 -0.433110 2.322550
						CHANNELS 3 Zrotation Yrotation Xrotation
						End Site
						{
							OFFSET 0.000000 0.000000 0.000000
						}
					}
				}
			}
		}
	}
	JOINT RHipJoint
	{
		OFFSET 0.000000 0.000000 0.000000
		CHANNELS 3 Zrotation Yrotation Xrotation
		JOINT RightUpLeg
		{
			OFFSET -1.305520 -1.794630 0.839290
			CHANNELS 3 Zrotation Yrotation Xrotation
			JOINT RightLeg
			{
				OFFSET -2.542530 -6.985550 0.000000
				CHANNELS 3 Zrotation Yrotation Xrotation
				JOINT RightFoot
				{
					OFFSET -2.568260 -7.056230 0.000000
					CHANNELS 3 Zrotation Yrotation Xrotation
					JOINT RightToeBase
					{
						OFFSET -0.164730 -0.452590 2.363150
						CHANNELS 3 Zrotation Yrotation Xrotation
						End Site
						{
							OFFSET 0.000000 0.000000 0.000000
						}
					}
				}
			}
		}
	}
	JOINT LowerBack
	{
		OFFSET 0.000000 0.000000 0.000000
		CHANNELS 3 Zrotation Yrotation Xrotation
		JOINT Spine
		{
			OFFSET 0.028270 2.035590 -0.193380
			CHANNELS 3 Zrotation Yrotation Xrotation
			JOINT Spine1
			{
				OFFSET 0.056720 2.048850 -0.042750
				CHANNELS 3 Zrotation Yrotation Xrotation
				JOINT Neck
				{
					OFFSET 0.000000 0.000000 0.000000
					CHANNELS 3 Zrotation Yrotation Xrotation
					JOINT Neck1
					{
						OFFSET -0.054170 1.746240 0.172020
						CHANNELS 3 Zrotation Yrotation Xrotation
						JOINT Head
						{
							OFFSET 0.104070 1.761360 -0.123970
							CHANNELS 3 Zrotation Yrotation Xrotation
							End Site
							{
								OFFSET 0.000000 0.000000 0.000000
							}
						}
					}
				}
				JOINT LeftShoulder
				{
					OFFSET 0.000000 0.000000 0.000000
					CHANNELS 3 Zrotation Yrotation Xrotation
					JOINT LeftArm
					{
						OFFSET 3.362410 1.200890 -0.311210
						CHANNELS 3 Zrotation Yrotation Xrotation
						JOINT LeftForeArm
						{
							OFFSET 4.983000 -0.000000 -0.000000
							CHANNELS 3 Zrotation Yrotation Xrotation
							JOINT LeftHand
							{
								OFFSET 3.483560 -0.000000 -0.000000
								CHANNELS 3 Zrotation Yrotation Xrotation
								JOINT LeftFingerBase
								{
									OFFSET 0.000000 0.000000 0.000000
									CHANNELS 3 Zrotation Yrotation Xrotation
									JOINT LeftHandIndex1
									{
										OFFSET 0.715260 -0.000000 -0.000000
										CHANNELS 3 Zrotation Yrotation Xrotation
										End Site
										{
											OFFSET 0.000000 0.000000 0.000000
										}
									}
								}
								JOINT LThumb
								{
									OFFSET 0.000000 0.000000 0.000000
									CHANNELS 3 Zrotation Yrotation Xrotation
									End Site
									{
										OFFSET 0.000000 0.000000 0.000000
									}
								}
							}
						}
					}
				}
				JOINT RightShoulder
				{
					OFFSET 0.000000 0.000000 0.000000
					CHANNELS 3 Zrotation Yrotation Xrotation
					JOINT RightArm
					{
						OFFSET -3.136600 1.374050 -0.404650
						CHANNELS 3 Zrotation Yrotation Xrotation
						JOINT RightForeArm
						{
							OFFSET -5.241900 -0.000000 -0.000000
							CHANNELS 3 Zrotation Yrotation Xrotation
							JOINT RightHand
							{
								OFFSET -3.444170 -0.000000 -0.000000
								CHANNELS 3 Zrotation Yrotation Xrotation
								JOINT RightFingerBase
								{
									OFFSET 0.000000 0.000000 0.000000
									CHANNELS 3 Zrotation Yrotation Xrotation
									JOINT RightHandIndex1
									{
										OFFSET -0.622530 -0.000000 -0.000000
										CHANNELS 3 Zrotation Yrotation Xrotation
										End Site
										{
											OFFSET 0.000000 0.000000 0.000000
										}
									}
								}
								JOINT RThumb
								{
									OFFSET 0.000000 0.000000 0.000000
									CHANNELS 3 Zrotation Yrotation Xrotation
									End Site
									{
										OFFSET 0.000000 0.000000 0.000000
									}
								}
							}
						}
					}
				}
			}
		}
	}
}
MOTION
Frames: 8
Frame Time: 0.008333
-0.793764 18.309818 5.967742 -2.208963 -0.985216 2.492071 0.940060 3.484829 2.402562 -11.629361 -7.715828 -7.005493 1.098220 7.677418 24.301526 -0.660442 6.988373 -14.890467 8.464600 -16.450600 -54.219400 -3.970956 -3.770915 1.118282 20.045629 3.172944 7.528278 0.446430 0.886979 1.657287 0.214936 -5.998187 -15.224320 -0.240500 3.156300 -8.714100 4.682411 0.857410 6.432056 -5.549581 1.195755 8.819455 -0.964340 1.129507 -17.055712 -1.855713 -2.876539 -22.585846 5.521646 -3.982913 25.826462 0.915000 -1.206000 7.822800 2.305741 -7.207349 1.314950 -92.382186 11.724700 25.233396 25.337858 -34.385648 -6.737839 0.456601 -0.008173 11.442367 4.875861 -27.233285 -2.036000 -7.125000 0.000000 0.000000 -15.264900 3.388100 14.883000 -2.351212 8.873708 3.870707 95.938372 -14.680661 19.085294 -33.147226 40.941360 -9.972347 1.015073 -3.240660 14.721437 -4.514841 -38.114923 3.708800 7.125000 0.000000 0.000000 32.324400 -62.341500 -14.422400 
-0.793568 18.308641 5.968037 -2.210792 -0.989130 2.519699 0.931028 3.483204 2.401215 -11.614786 -7.722537 -7.027398 1.097962 7.679943 24.301334 -0.655255 6.969575 -14.893645 8.451100 -16.441200 -54.171800 -3.980488 -3.769281 1.112884 20.057337 3.180386 7.507531 0.446012 0.887245 1.657647 0.207233 -5.959037 -15.231439 -0.227600 3.070700 -8.475600 4.744209 0.860063 6.433578 -5.641411 1.206302 8.789560 -0.968687 1.130869 -17.045845 -1.831646 -2.881263 -22.616759 5.582673 -4.008999 25.851421 0.920000 -1.208500 7.832700 2.317538 -7.211717 1.322611 -92.261831 11.792704 25.482278 25.397725 -34.441905 -6.767102 0.459960 -0.001006 11.145131 4.903980 -27.202316 -2.046100 -7.125000 0.000000 0.000000 -15.249700 3.410200 14.860600 -2.339293 8.877276 3.872979 95.997043 -14.692315 18.995985 -33.108196 40.905180 -9.944928 1.014146 -3.240384 14.817782 -4.488188 -37.964015 3.681800 7.125000 0.000000 0.000000 32.186600 -62.213700 -14.256800 
-0.792587 18.308053 5.967546 -2.161282 -1.020049 2.566817 0.906960 3.476088 2.390012 -11.647120 -7.729596 -7.061584 1.095143 7.684975 24.299717 -0.659399 6.993102 -14.906919 8.452700 -16.442300 -54.177200 -4.006939 -3.764662 1.092139 20.027515 3.214127 7.477096 0.445901 0.886759 1.657413 0.209046 -5.956348 -15.207213 -0.221900 3.032600 -8.369500 4.829150 0.873341 6.472215 -5.889530 1.231383 8.640535 -0.929250 1.145250 -17.010847 -1.836143 -2.901135 -22.610071 5.749464 -4.079345 25.930915 0.946000 -1.220600 7.851600 2.344671 -7.225973 1.339620 -92.196758 11.840796 25.678873 25.724744 -34.754245 -6.885362 0.422065 0.026191 11.598996 4.380720 -25.852395 -1.742400 -7.125000 0.000000 0.000000 -15.527500 4.735300 14.756600 -2.297318 8.880704 3.884818 96.070360 -14.735291 18.872634 -33.085451 40.878545 -9.926598 1.014600 -3.240140 14.951354 -4.416186 -37.832597 3.632700 7.125000 0.000000 0.000000 32.116800 -62.093600 -14.131200 
-0.791606 18.308935 5.966958 -2.137985 -1.030413 2.623083 0.905341 3.468730 2.374727 -11.674715 -7.733723 -7.112819 1.093863 7.688534 24.301764 -0.665899 7.018256 -14.900050 8.464500 -16.450500 -54.219000 -4.010388 -3.761519 1.078721 20.002153 3.239218 7.428093 0.445699 0.884667 1.656464 0.209252 -5.954334 -15.199605 -0.215500 2.988800 -8.247500 4.822685 0.884417 6.507347 -5.918544 1.241299 8.498991 -0.913932 1.154415 -16.979761 -1.838970 -2.915710 -22.603519 5.776744 -4.108884 25.979467 0.949900 -1.230600 7.860800 2.340931 -7.229939 1.347413 -92.322121 11.728531 25.296670 25.750051 -34.779613 -6.885903 0.404396 0.020331 12.171712 4.067769 -25.562800 -1.595200 -7.125000 0.000000 0.000000 -15.703500 5.045300 14.842500 -2.281043 8.885310 3.901100 96.079941 -14.786554 18.802006 -33.103057 40.888273 -9.939071 1.011475 -3.240732 15.010714 -4.432910 -37.866565 3.645600 7.125000 0.000000 0.000000 32.136600 -62.126100 -14.165500 
-0.791802 18.309622 5.967056 -2.138756 -0.995066 2.633192 0.917855 3.472176 2.384380 -11.679084 -7.714311 -7.156328 1.096614 7.686477 24.304951 -0.665080 6.997439 -14.850923 8.475300 -16.458000 -54.257200 -3.994966 -3.766209 1.096856 19.986369 3.216861 7.396935 0.445072 0.884767 1.656462 0.202953 -5.925005 -15.212185 -0.204800 2.914000 -8.039400 4.755930 0.884209 6.439249 -5.781861 1.232491 8.644087 -0.925589 1.151430 -16.997356 -1.845830 -2.910740 -22.647875 5.710430 -4.082091 25.924983 0.940900 -1.227400 7.855300 2.328711 -7.219858 1.330465 -92.413897 11.604802 25.047948 25.712431 -34.749052 -6.868369 0.401269 0.014167 12.404022 4.024818 -25.610914 -1.579900 -7.125000 0.000000 0.000000 -15.727400 5.007300 14.878700 -2.306455 8.881528 3.890547 96.039185 -14.761231 18.796757 -33.112597 40.904279 -9.953554 1.011588 -3.243377 15.009606 -4.396441 -38.019373 3.638900 7.125000 0.000000 0.000000 32.337600 -62.242500 -14.353400 
-0.791018 18.309622 5.966566 -2.124487 -0.965664 2.617275 0.924442 3.477506 2.397823 -11.698174 -7.708616 -7.165358 1.099205 7.684453 24.309031 -0.660516 6.970284 -14.826418 8.482500 -16.462900 -54.282400 -3.984083 -3.770377 1.114803 19.952128 3.191444 7.388666 0.444375 0.885535 1.657006 0.191908 -5.879598 -15.244086 -0.192700 2.826700 -7.796600 4.703759 0.872379 6.404858 -5.697164 1.214307 8.805744 -0.926869 1.144374 -17.043208 -1.878877 -2.894829 -22.709769 5.712067 -4.050480 25.884776 0.949200 -1.214700 7.855000 2.329190 -7.209710 1.315996 -92.437249 11.537855 25.030247 25.711036 -34.752610 -6.865817 0.398133 0.016820 12.404977 4.011679 -25.500318 -1.569500 -7.125000 0.000000 0.000000 -15.733700 5.112900 14.852600 -2.327683 8.873351 3.877438 95.969506 -14.730512 18.857622 -33.087005 40.886559 -9.945123 1.011243 -3.245176 14.988801 -4.382276 -38.105334 3.637900 7.125000 0.000000 0.000000 32.444900 -62.308100 -14.456800 
-0.790233 18.309131 5.965291 -2.127824 -0.950637 2.583466 0.931316 3.484497 2.414740 -11.706178 -7.731178 -7.142039 1.100528 7.681215 24.311381 -0.657509 6.960923 -14.839484 8.481300 -16.462100 -54.278400 -3.972714 -3.774862 1.135093 19.932389 3.176820 7.397199 0.443453 0.886733 1.657612 0.182766 -5.831905 -15.252299 -0.182600 2.752300 -7.589900 4.664266 0.866300 6.369053 -5.602228 1.206211 8.996225 -0.945041 1.139293 -17.095706 -1.921411 -2.879012 -22.735584 5.756572 -4.026371 25.824856 0.965800 -1.201500 7.847100 2.332346 -7.199879 1.298166 -92.447880 11.465594 25.042123 25.705181 -34.753118 -6.861850 0.395538 0.017561 12.408342 3.978079 -25.437668 -1.552600 -7.125000 0.000000 0.000000 -15.752400 5.175700 14.852300 -2.352622 8.865849 3.859665 95.925178 -14.697001 18.884611 -33.039964 40.844092 -9.913306 1.008385 -3.243286 15.033718 -4.421406 -37.960231 3.646800 7.125000 0.000000 0.000000 32.249000 -62.198900 -14.276400 
-0.790429 18.308739 5.964310 -2.148199 -0.947620 2.546196 0.940781 3.494016 2.438377 -11.696103 -7.730094 -7.134735 1.102654 7.677979 24.316780 -0.664376 6.982252 -14.829302 8.497000 -16.472900 -54.333700 -3.959574 -3.781940 1.164208 19.938609 3.176964 7.405755 0.443250 0.888740 1.657889 0.186158 -5.838543 -15.230884 -0.186700 2.783200 -7.675800 4.625204 0.880115 6.267815 -5.478402 1.221708 9.274382 -0.980388 1.142952 -17.134610 -1.946419 -2.869156 -22.709679 5.780593 -4.008107 25.691235 0.974800 -1.195200 7.819400 2.333904 -7.189438 1.270061 -92.440837 11.381984 25.098223 25.708507 -34.763625 -6.864192 0.395481 0.016377 12.408995 3.962978 -25.470461 -1.547700 -7.125000 0.000000 0.000000 -15.761200 5.146500 14.870300 -2.388883 8.858257 3.830110 95.922187 -14.627729 18.839074 -33.005348 40.823629 -9.894588 1.008084 -3.244074 15.069518 -4.401277 -37.910615 3.631600 7.125000 0.000000 0.000000 32.214500 -62.153700 -14.224900 
